<?xml version="1.0" standalone="no"?>
<!DOCTYPE svg PUBLIC "-//W3C//DTD SVG 20010904//EN"
 "http://www.w3.org/TR/2001/REC-SVG-20010904/DTD/svg10.dtd">
<svg version="1.0" xmlns="http://www.w3.org/2000/svg"
     width="25px"   height="25px" viewBox="0 0 1280.000000 1115.000000"
 preserveAspectRatio="xMidYMid meet">
<metadata>
Created by potrace 1.15, written by Peter Selinger 2001-2017
</metadata>
<g transform="translate(0.000000,1115.000000) scale(0.100000,-0.100000)"
fill="#E1B935" stroke="none">
<path d="M8450 11144 c-329 -27 -525 -58 -785 -124 -651 -165 -1280 -499
-1869 -994 -116 -97 -349 -308 -374 -338 -11 -13 -21 -13 -90 -1 -534 94
-1097 140 -1602 130 -525 -10 -951 -70 -1379 -194 -995 -288 -1738 -874 -2265
-1788 l-86 -150 0 -93 c0 -91 3 -103 91 -375 50 -155 108 -336 129 -402 21
-66 115 -360 209 -652 94 -293 247 -772 341 -1063 93 -291 247 -770 341 -1062
94 -293 188 -587 209 -653 38 -119 222 -693 551 -1717 94 -293 252 -788 352
-1100 l182 -568 276 0 275 0 139 207 c76 114 184 264 239 333 123 154 375 408
516 520 777 617 1809 855 3126 720 304 -31 497 -61 903 -140 140 -28 261 -50
270 -50 10 0 63 74 139 195 245 387 406 577 672 792 234 189 553 351 871 442
572 165 1318 165 2124 1 114 -23 714 -159 818 -185 l27 -7 0 309 0 309 -169
505 c-93 277 -346 1028 -561 1669 -215 641 -481 1431 -590 1755 -109 325 -298
887 -420 1250 -122 363 -315 939 -429 1280 -274 816 -319 948 -328 956 -13 11
-382 117 -555 159 -183 44 -406 82 -608 105 -127 15 -592 27 -690 19z m465
-874 c77 -6 203 -20 280 -31 148 -21 415 -76 427 -88 8 -7 88 -242 430 -1261
449 -1338 1269 -3777 1532 -4559 69 -206 124 -376 121 -379 -2 -2 -39 1 -82 7
-764 110 -1550 58 -2163 -142 -551 -181 -1070 -514 -1430 -919 -47 -53 -86
-95 -87 -94 -2 2 -48 151 -102 332 -127 423 -301 998 -401 1329 -43 143 -129
427 -190 630 -61 204 -147 488 -191 633 -43 144 -115 380 -158 525 -44 144
-130 429 -191 632 -61 204 -147 487 -190 630 -43 143 -115 379 -159 525 -44
146 -130 432 -192 635 -61 204 -114 379 -116 390 -4 16 25 47 127 140 488 443
989 748 1500 913 274 89 484 129 815 155 94 8 290 6 420 -3z m-4485 -1344
c271 -24 770 -92 784 -107 2 -2 49 -155 105 -339 96 -321 159 -529 366 -1215
90 -297 170 -564 381 -1262 52 -175 131 -437 175 -583 206 -679 245 -809 349
-1155 61 -203 160 -532 220 -730 60 -198 145 -479 189 -624 l79 -264 -71 7
c-279 24 -411 30 -707 30 -429 0 -723 -24 -1074 -89 -851 -157 -1602 -528
-2163 -1069 -68 -64 -104 -94 -108 -85 -10 27 -200 592 -405 1204 -115 341
-385 1144 -600 1785 -215 641 -485 1444 -600 1785 -114 341 -260 775 -324 964
l-116 343 83 121 c540 791 1354 1213 2497 1296 175 13 731 5 940 -13z"/>
</g>
</svg>
