<?xml version="1.0" standalone="no"?>
<!DOCTYPE svg PUBLIC "-//W3C//DTD SVG 20010904//EN"
 "http://www.w3.org/TR/2001/REC-SVG-20010904/DTD/svg10.dtd">
<svg version="1.0" xmlns="http://www.w3.org/2000/svg"
     width="40px" height="40px"  fill="#E1B935"  viewBox="0 0 1109.000000 1280.000000"
 preserveAspectRatio="xMidYMid meet">
<metadata>
Created by potrace 1.15, written by Peter Selinger 2001-2017
</metadata>
<g transform="translate(0.000000,1280.000000) scale(0.100000,-0.100000)"
fill="#f4c430" stroke="none">
<path d="M4892 12789 c-266 -43 -642 -358 -733 -615 -18 -52 -20 -74 -15 -184
3 -69 11 -151 19 -183 13 -53 13 -63 -5 -120 -85 -273 -121 -575 -84 -712 31
-118 131 -270 254 -386 l84 -80 -16 -66 c-35 -139 22 -264 169 -369 61 -43 63
-46 91 -132 26 -77 29 -101 28 -202 -1 -100 -7 -136 -43 -280 -24 -91 -58
-197 -77 -237 -70 -147 -224 -318 -344 -382 -136 -73 -381 -117 -725 -131
-145 -6 -227 -14 -265 -25 -192 -58 -456 -296 -550 -496 -45 -96 -67 -197 -95
-437 -14 -119 -36 -305 -50 -412 -13 -107 -26 -248 -30 -312 -4 -64 -11 -145
-16 -180 -32 -216 -39 -288 -53 -518 -8 -140 -18 -354 -21 -475 -9 -336 -46
-588 -117 -799 -38 -113 -66 -169 -186 -370 -173 -291 -185 -322 -312 -821
-39 -154 -83 -314 -97 -355 -39 -116 -157 -363 -285 -600 -195 -362 -171 -328
-268 -379 -99 -53 -97 -53 -411 -31 -192 14 -199 13 -285 -8 -94 -23 -130 -43
-153 -84 -14 -24 -13 -32 13 -96 35 -85 33 -98 -30 -226 -46 -94 -47 -97 -42
-173 4 -62 15 -104 55 -208 28 -71 58 -163 68 -203 l17 -72 -98 -106 c-237
-254 -295 -337 -280 -398 13 -51 82 -38 173 31 l31 24 47 -35 c77 -60 135 -45
275 70 159 130 365 254 421 254 6 0 -3 -17 -19 -38 -101 -128 -95 -191 21
-223 65 -17 106 1 200 89 83 78 181 162 189 162 2 0 -6 -39 -18 -88 -27 -103
-29 -182 -9 -272 36 -154 94 -256 217 -386 121 -126 197 -182 353 -258 227
-112 302 -129 705 -160 323 -26 635 -38 810 -31 242 9 587 32 815 55 110 11
270 24 355 30 236 16 273 26 760 200 139 49 148 51 219 45 83 -7 184 -27 411
-80 389 -93 805 -182 810 -175 3 5 45 -2 94 -16 286 -76 859 -132 1236 -121
275 9 813 55 1115 97 77 11 194 27 259 35 134 18 180 34 271 99 125 90 202
197 255 354 42 127 111 472 111 563 1 70 -20 154 -66 262 -6 15 0 14 51 -8 33
-15 169 -74 304 -132 238 -102 247 -105 308 -101 72 5 96 21 94 67 -1 35 1 36
83 16 139 -34 192 -11 202 85 l5 55 -104 51 c-62 31 -133 76 -178 114 -47 40
-111 80 -173 110 l-98 46 53 41 c172 130 221 244 167 390 -21 55 -78 126 -122
150 -17 9 -17 15 -7 77 15 82 7 136 -28 201 -41 75 -87 95 -220 95 -119 0
-207 -16 -350 -64 l-102 -35 -146 39 c-80 21 -147 40 -149 42 -15 16 -202 312
-298 473 -174 289 -258 458 -312 630 -25 80 -65 210 -90 290 -60 191 -129 325
-296 574 l-138 207 -105 315 c-145 433 -168 533 -236 1019 -52 368 -82 524
-199 1037 -36 157 -54 266 -66 388 -49 516 -115 708 -292 847 -160 126 -298
169 -633 198 -165 14 -296 42 -377 80 -74 34 -344 204 -411 258 -60 48 -124
118 -205 224 l-69 89 -18 132 c-10 73 -24 235 -31 361 l-12 230 38 30 c21 17
67 51 104 76 57 40 71 56 104 120 44 86 78 234 80 350 l2 74 60 33 c123 68
173 152 219 371 43 202 35 314 -42 583 -26 89 -31 126 -35 254 -4 135 -7 159
-36 244 -115 341 -286 511 -631 625 l-105 35 -330 -1 c-181 -1 -354 -5 -383
-9z m-1447 -6320 c62 -356 114 -594 175 -797 77 -256 103 -361 139 -562 30
-168 75 -500 87 -645 8 -101 -16 -206 -88 -379 -111 -267 -147 -408 -188 -751
-42 -339 -89 -465 -228 -604 -136 -135 -230 -175 -622 -266 -406 -93 -535
-140 -723 -267 -49 -33 -90 -58 -92 -56 -6 6 391 650 562 911 56 86 166 246
245 354 182 251 244 355 386 643 l115 235 23 170 c38 278 63 517 79 750 31
464 55 842 72 1152 9 177 18 321 20 319 2 -2 19 -95 38 -207z m3635 111 c5
-10 25 -125 45 -256 141 -932 252 -1468 395 -1908 136 -417 310 -705 756
-1246 143 -174 320 -366 588 -637 126 -128 227 -235 224 -238 -3 -3 -57 15
-119 41 -155 64 -231 89 -387 130 -73 19 -194 57 -270 85 -268 100 -365 129
-517 154 -125 21 -163 31 -230 64 -133 66 -291 215 -358 339 -14 26 -55 144
-91 264 -36 119 -84 262 -106 318 -62 156 -171 373 -251 500 -40 63 -85 142
-101 175 -75 162 -79 595 -7 980 59 318 250 975 336 1157 58 122 66 129 93 78z"/>
</g>
</svg>
